<?xml version="1.0" encoding="UTF-8" standalone="no"?>
<!-- Created with Inkscape (http://www.inkscape.org/) -->

<svg
   version="1.1"
   id="svg2"
   width="512"
   height="512"
   viewBox="0 0 512 512"
   sodipodi:docname="CopyCmdLine.svg"
   inkscape:version="1.2.2 (732a01da63, 2022-12-09)"
   xmlns:inkscape="http://www.inkscape.org/namespaces/inkscape"
   xmlns:sodipodi="http://sodipodi.sourceforge.net/DTD/sodipodi-0.dtd"
   xmlns="http://www.w3.org/2000/svg"
   xmlns:svg="http://www.w3.org/2000/svg">
  <defs
     id="defs6" />
  <sodipodi:namedview
     id="namedview4"
     pagecolor="#ffffff"
     bordercolor="#666666"
     borderopacity="1.0"
     inkscape:showpageshadow="2"
     inkscape:pageopacity="0.0"
     inkscape:pagecheckerboard="0"
     inkscape:deskcolor="#d1d1d1"
     showgrid="false"
     showguides="true"
     inkscape:zoom="0.85492422"
     inkscape:cx="227.50554"
     inkscape:cy="307.6296"
     inkscape:window-width="1920"
     inkscape:window-height="1017"
     inkscape:window-x="-8"
     inkscape:window-y="-8"
     inkscape:window-maximized="1"
     inkscape:current-layer="g8" />
  <g
     inkscape:groupmode="layer"
     inkscape:label="Image"
     id="g8">
    <path
       style="fill:#f5f5f5;stroke-width:0.999998"
       d="M 32,304 V 95.999996 H 95.999996 160 V 48 0 h 160 160 v 208 208 h -64 -64 v 48 48 H 192 32 Z"
       id="path299"
       sodipodi:nodetypes="ccccccccccccccccc" />
    <path
       id="path297"
       style="fill:#0083c7;stroke-width:0.999998"
       d="m 128,192 v 42 l 80,70 -80,70 v 42 L 256,304 Z" />
    <path
       style="fill:#414141;stroke-width:0.999998"
       d="M 64,304 V 128 h 128 128 v 64 64 H 304 288 V 208 160 H 192 95.999996 V 304 448 H 192 288 v -16 -16 h 16 16 v 32 32 H 192 64 Z m 192,64 v -16 h 64 64 v 16 16 H 320 256 Z M 416,224 V 64 H 320 224 V 79.999998 95.999996 H 208 192 V 64 32 h 128 128 v 176 176 h -16 -16 z"
       id="path295" />
  </g>
</svg>
